<svg width="98" height="98" viewBox="0 0 98 98" fill="none" xmlns="http://www.w3.org/2000/svg">
    <g clip-path="url(#clip0_8494_1158)">
        <path d="M61.8125 11.9902L96.0239 71.2463C97.3212 73.4899 98.0028 76.0364 98 78.628C98 86.7953 91.3788 93.4169 83.2111 93.4169H49L37.1689 49.0001L49 4.5835C54.478 4.5835 59.2568 7.56427 61.8125 11.9902Z" fill="#3B4145"/>
        <path d="M36.1875 11.9902L1.9759 71.2463C0.678771 73.49 -0.00283751 76.0364 8.87843e-06 78.628C8.87843e-06 86.7953 6.62113 93.4169 14.7888 93.4169H49V4.5835C43.522 4.5835 38.7431 7.56427 36.1875 11.9902Z" fill="#525A61"/>
        <path d="M90.9013 74.2039L56.6901 14.9484C55.1482 12.2765 52.3167 10.5906 49.2544 10.5039L78.5145 87.5019H83.2114C88.1035 87.5019 92.0846 83.521 92.0846 78.6286C92.0843 77.0756 91.6763 75.5498 90.9013 74.2039Z" fill="#FFB751"/>
        <path d="M85.1476 74.204C85.816 75.5448 86.1689 77.0749 86.1689 78.6287C86.1689 83.5209 82.736 87.5019 78.5142 87.5019H14.7887C9.89659 87.5019 5.91553 83.5209 5.91553 78.6287C5.91585 77.0757 6.3238 75.5499 7.09861 74.204L41.3098 14.9484C42.8952 12.2037 45.8411 10.498 48.9999 10.498C49.0847 10.498 49.1695 10.5 49.2543 10.504C51.8827 10.6066 54.3101 12.2885 55.6331 14.9484L85.1476 74.204Z" fill="#FFD764"/>
        <path d="M49 67.7832V77.6423C51.7231 77.6423 53.9297 75.4358 53.9297 72.7127C53.9297 69.9897 51.7231 67.7832 49 67.7832Z" fill="#3B4145"/>
        <path d="M49 67.7832C49.5441 67.7832 49.9859 69.9897 49.9859 72.7129C49.9859 75.436 49.5441 77.6425 49 77.6425C46.2768 77.6425 44.0703 75.436 44.0703 72.7129C44.0703 69.9897 46.2768 67.7832 49 67.7832Z" fill="#525A61"/>
        <path d="M49 25.3892V61.8681C51.7231 61.8681 53.9297 59.6597 53.9297 56.9385V30.3188C53.9297 27.5957 51.7231 25.3892 49 25.3892Z" fill="#3B4145"/>
        <path d="M49 25.3892C49.5441 25.3892 49.9859 27.5957 49.9859 30.3188V56.9385C49.9859 59.6595 49.5441 61.8681 49 61.8681C46.2768 61.8681 44.0703 59.6597 44.0703 56.9385V30.3188C44.0703 27.5957 46.2768 25.3892 49 25.3892Z" fill="#525A61"/>
    </g>
    <defs>
        <clipPath id="clip0_8494_1158">
            <rect width="98" height="98" fill="white"/>
        </clipPath>
    </defs>
</svg>
