<svg width="98" height="98" viewBox="0 0 98 98" fill="none" xmlns="http://www.w3.org/2000/svg">
    <g clip-path="url(#clip0_8494_1215)">
        <path d="M49 98C76.062 98 98 76.062 98 49C98 21.938 76.062 0 49 0C21.938 0 0 21.938 0 49C0 76.062 21.938 98 49 98Z" fill="#BBEC6C"/>
        <path d="M49.0001 0C48.0063 0 47.0204 0.0331268 46.0412 0.091493C71.7249 1.62183 90.8244 22.9318 90.8244 49C90.8244 75.0682 71.7249 96.3782 46.041 97.9085C47.0204 97.9669 48.0063 98 49.0001 98C76.0621 98 98.0001 76.062 98.0001 49C98.0001 21.938 76.0621 0 49.0001 0Z" fill="#A2E62E"/>
        <path d="M49.0001 90.8244C72.099 90.8244 90.8244 72.099 90.8244 49.0001C90.8244 25.9012 72.099 7.17578 49.0001 7.17578C25.9012 7.17578 7.17578 25.9012 7.17578 49.0001C7.17578 72.099 25.9012 90.8244 49.0001 90.8244Z" fill="#4FC123"/>
        <path d="M48.9999 7.17578C48.005 7.17578 47.0186 7.21305 46.041 7.28127C67.759 8.79958 84.9064 26.8963 84.9064 49.0001C84.9064 71.1041 67.759 89.2006 46.041 90.7189C47.0186 90.7873 48.005 90.8244 48.9999 90.8244C72.099 90.8244 90.8243 72.0989 90.8243 49.0001C90.8243 25.9013 72.099 7.17578 48.9999 7.17578Z" fill="#47A920"/>
        <path d="M74.2988 40.5904L47.6022 67.289C44.7706 70.1185 40.1841 70.1185 37.3546 67.289L23.7016 53.636C22.132 52.0684 22.132 49.5247 23.7016 47.9571L27.6808 43.978V43.976L29.0295 42.6273C30.5971 41.0597 33.1408 41.0597 34.7084 42.6273L41.5408 49.4597C42.2743 50.1952 43.4672 50.1952 44.2008 49.4597L63.6844 29.976C65.252 28.4084 67.7957 28.4084 69.3633 29.976L74.2988 34.9115C75.8684 36.4811 75.8684 39.0228 74.2988 40.5904Z" fill="#D1F19E"/>
        <path d="M44.2007 49.4594L41.939 51.7211C41.0477 52.6143 39.6024 52.6203 38.7012 51.7349L31.786 44.9459C30.6759 43.8338 29.0767 43.5143 27.6807 43.9777V43.9758L29.0294 42.627C30.597 41.0594 33.1407 41.0594 34.7083 42.627L41.5407 49.4594C42.2742 50.1949 43.4671 50.1949 44.2007 49.4594ZM74.2995 34.9118L69.3636 29.976C67.7954 28.4078 65.2529 28.4078 63.6847 29.976L62.4086 31.2521C63.5573 31.1451 64.7434 31.5307 65.6228 32.4104L68.3814 34.912C69.9496 36.4802 69.9496 39.0227 68.3814 40.5909L43.8976 65.3961C42.1496 67.1442 39.7305 67.8109 37.4696 67.3991C40.3073 70.1165 44.8094 70.0812 47.6013 67.2893L74.2997 40.5909C75.8677 39.0227 75.8677 36.48 74.2995 34.9118Z" fill="#BBEC6C"/>
    </g>
    <defs>
        <clipPath id="clip0_8494_1215">
            <rect width="98" height="98" fill="white"/>
        </clipPath>
    </defs>
</svg>
