<svg width="18" height="18" viewBox="0 0 18 18" fill="none" xmlns="http://www.w3.org/2000/svg">
    <path d="M8.99995 15.8892H4.12512C3.8168 15.8892 3.55973 15.7451 3.43743 15.5036C3.31515 15.2622 3.35108 14.9696 3.53354 14.721L4.14621 13.8887C2.84715 12.5986 2.11084 10.843 2.11084 9.00002C2.11084 5.20132 5.20129 2.11084 8.99995 2.11084C12.7987 2.11084 15.8892 5.20132 15.8892 9.00002C15.8892 12.7988 12.7987 15.8892 8.99995 15.8892ZM8.99995 14.8345C12.2171 14.8345 14.8345 12.2172 14.8345 9.00002C14.8345 5.78287 12.2171 3.16553 8.99995 3.16553C5.78284 3.16553 3.16553 5.78287 3.16553 9.00002C3.16553 10.6997 3.905 12.3116 5.19436 13.4225L5.56434 13.7413L4.75962 14.8345H8.99995Z" fill="black"/>
    <path d="M7.16337 9.00021C7.16337 9.40556 6.8348 9.7342 6.42941 9.7342C6.02395 9.7342 5.69531 9.40556 5.69531 9.00021C5.69531 8.59475 6.02395 8.26611 6.42941 8.26611C6.8348 8.26611 7.16337 8.59479 7.16337 9.00021Z" fill="black"/>
    <path d="M9.00011 9.7341C9.40548 9.7341 9.7341 9.40548 9.7341 9.00011C9.7341 8.59473 9.40548 8.26611 9.00011 8.26611C8.59473 8.26611 8.26611 8.59473 8.26611 9.00011C8.26611 9.40548 8.59473 9.7341 9.00011 9.7341Z" fill="black"/>
    <path d="M11.5714 9.73417C11.9768 9.73417 12.3055 9.40553 12.3055 9.00014C12.3055 8.59475 11.9768 8.26611 11.5714 8.26611C11.166 8.26611 10.8374 8.59475 10.8374 9.00014C10.8374 9.40553 11.166 9.73417 11.5714 9.73417Z" fill="black"/>
</svg>
