<svg width="16" height="16" viewBox="0 0 16 16" fill="none" xmlns="http://www.w3.org/2000/svg">
    <path d="M7.6948 13.3335H1.59983C1.01073 13.3335 0.533203 12.8559 0.533203 12.2669V11.2002H8.71936L7.6948 13.3335Z" fill="#D3DCFB"/>
    <path d="M14.4009 4.79999V12.2666H1.59983C1.01073 12.2666 0.533203 11.7891 0.533203 11.2V4.79999L8.00039 2.1333L14.4009 4.79999Z" fill="#EBF5FC"/>
    <path d="M2.41675 6.93336H1.8501C1.78379 6.93336 1.72021 6.90702 1.67332 6.86013C1.62644 6.81325 1.6001 6.74966 1.6001 6.68336V6.1167C1.6001 6.0504 1.62644 5.98681 1.67332 5.93992C1.72021 5.89304 1.78379 5.8667 1.8501 5.8667H2.41675C2.48306 5.8667 2.54665 5.89304 2.59353 5.93992C2.64041 5.98681 2.66675 6.0504 2.66675 6.1167V6.68336C2.66675 6.74966 2.64041 6.81325 2.59353 6.86013C2.54665 6.90702 2.48306 6.93336 2.41675 6.93336ZM4.5501 6.93336H3.98344C3.91714 6.93336 3.85355 6.90702 3.80666 6.86013C3.75978 6.81325 3.73344 6.74966 3.73344 6.68336V6.1167C3.73344 6.0504 3.75978 5.98681 3.80666 5.93992C3.85355 5.89304 3.91714 5.8667 3.98344 5.8667H4.5501C4.6164 5.8667 4.67999 5.89304 4.72687 5.93992C4.77376 5.98681 4.8001 6.0504 4.8001 6.1167V6.68336C4.8001 6.74966 4.77376 6.81325 4.72687 6.86013C4.67999 6.90702 4.6164 6.93336 4.5501 6.93336ZM6.68341 6.93336H6.11675C6.05045 6.93336 5.98686 6.90702 5.93998 6.86013C5.89309 6.81325 5.86675 6.74966 5.86675 6.68336V6.1167C5.86675 6.0504 5.89309 5.98681 5.93998 5.93992C5.98686 5.89304 6.05045 5.8667 6.11675 5.8667H6.68341C6.74971 5.8667 6.8133 5.89304 6.86019 5.93992C6.90707 5.98681 6.93341 6.0504 6.93341 6.1167V6.68336C6.93341 6.74966 6.90707 6.81325 6.86019 6.86013C6.8133 6.90702 6.74971 6.93336 6.68341 6.93336ZM8.81675 6.93336H8.2501C8.18379 6.93336 8.12021 6.90702 8.07332 6.86013C8.02644 6.81325 8.0001 6.74966 8.0001 6.68336V6.1167C8.0001 6.0504 8.02644 5.98681 8.07332 5.93992C8.12021 5.89304 8.18379 5.8667 8.2501 5.8667H8.81675C8.88306 5.8667 8.94665 5.89304 8.99353 5.93992C9.04041 5.98681 9.06675 6.0504 9.06675 6.1167V6.68336C9.06675 6.74966 9.04041 6.81325 8.99353 6.86013C8.94665 6.90702 8.88306 6.93336 8.81675 6.93336ZM10.9497 6.93336H10.3831C10.3168 6.93336 10.2532 6.90702 10.2063 6.86013C10.1594 6.81325 10.1331 6.74966 10.1331 6.68336V6.1167C10.1331 6.0504 10.1594 5.98681 10.2063 5.93992C10.2532 5.89304 10.3168 5.8667 10.3831 5.8667H10.9497C11.016 5.8667 11.0796 5.89304 11.1265 5.93992C11.1734 5.98681 11.1997 6.0504 11.1997 6.1167V6.68336C11.1997 6.74966 11.1734 6.81325 11.1265 6.86013C11.0796 6.90702 11.016 6.93336 10.9497 6.93336ZM13.0831 6.93336H12.5164C12.4501 6.93336 12.3865 6.90702 12.3396 6.86013C12.2927 6.81325 12.2664 6.74966 12.2664 6.68336V6.1167C12.2664 6.0504 12.2927 5.98681 12.3396 5.93992C12.3865 5.89304 12.4501 5.8667 12.5164 5.8667H13.0831C13.1494 5.8667 13.213 5.89304 13.2598 5.93992C13.3067 5.98681 13.3331 6.0504 13.3331 6.1167V6.68336C13.3331 6.74966 13.3067 6.81325 13.2598 6.86013C13.213 6.90702 13.1494 6.93336 13.0831 6.93336ZM2.41675 9.06667H1.8501C1.78379 9.06667 1.72021 9.04033 1.67332 8.99344C1.62644 8.94656 1.6001 8.88297 1.6001 8.81667V8.25001C1.6001 8.18371 1.62644 8.12012 1.67332 8.07324C1.72021 8.02635 1.78379 8.00001 1.8501 8.00001H2.41675C2.48306 8.00001 2.54665 8.02635 2.59353 8.07324C2.64041 8.12012 2.66675 8.18371 2.66675 8.25001V8.81667C2.66675 8.88297 2.64041 8.94656 2.59353 8.99344C2.54665 9.04033 2.48306 9.06667 2.41675 9.06667ZM4.5501 9.06667H3.98344C3.91714 9.06667 3.85355 9.04033 3.80666 8.99344C3.75978 8.94656 3.73344 8.88297 3.73344 8.81667V8.25001C3.73344 8.18371 3.75978 8.12012 3.80666 8.07324C3.85355 8.02635 3.91714 8.00001 3.98344 8.00001H4.5501C4.6164 8.00001 4.67999 8.02635 4.72687 8.07324C4.77376 8.12012 4.8001 8.18371 4.8001 8.25001V8.81667C4.8001 8.88297 4.77376 8.94656 4.72687 8.99344C4.67999 9.04033 4.6164 9.06667 4.5501 9.06667ZM6.68341 9.06667H6.11675C6.05045 9.06667 5.98686 9.04033 5.93998 8.99344C5.89309 8.94656 5.86675 8.88297 5.86675 8.81667V8.25001C5.86675 8.18371 5.89309 8.12012 5.93998 8.07324C5.98686 8.02635 6.05045 8.00001 6.11675 8.00001H6.68341C6.74971 8.00001 6.8133 8.02635 6.86019 8.07324C6.90707 8.12012 6.93341 8.18371 6.93341 8.25001V8.81667C6.93341 8.88297 6.90707 8.94656 6.86019 8.99344C6.8133 9.04033 6.74971 9.06667 6.68341 9.06667ZM9.06675 9.06667V8.26667C9.06675 8.23165 9.05986 8.19697 9.04646 8.16462C9.03305 8.13227 9.01341 8.10288 8.98865 8.07811C8.96389 8.05335 8.93449 8.03371 8.90214 8.02031C8.86979 8.00691 8.83512 8.00001 8.8001 8.00001H8.26675C8.19603 8.00001 8.12821 8.02811 8.0782 8.07811C8.02819 8.12812 8.0001 8.19595 8.0001 8.26667V8.80001C8.0001 8.87073 8.02819 8.93856 8.0782 8.98857C8.12821 9.03857 8.19603 9.06667 8.26675 9.06667H9.06675ZM2.41675 11.2H1.8501C1.78379 11.2 1.72021 11.1737 1.67332 11.1268C1.62644 11.0799 1.6001 11.0163 1.6001 10.95V10.3834C1.6001 10.3171 1.62644 10.2535 1.67332 10.2066C1.72021 10.1597 1.78379 10.1334 1.8501 10.1334H2.41675C2.48306 10.1334 2.54665 10.1597 2.59353 10.2066C2.64041 10.2535 2.66675 10.3171 2.66675 10.3834V10.95C2.66675 11.0163 2.64041 11.0799 2.59353 11.1268C2.54665 11.1737 2.48306 11.2 2.41675 11.2ZM4.5501 11.2H3.98344C3.91714 11.2 3.85355 11.1737 3.80666 11.1268C3.75978 11.0799 3.73344 11.0163 3.73344 10.95V10.3834C3.73344 10.3171 3.75978 10.2535 3.80666 10.2066C3.85355 10.1597 3.91714 10.1334 3.98344 10.1334H4.5501C4.6164 10.1334 4.67999 10.1597 4.72687 10.2066C4.77376 10.2535 4.8001 10.3171 4.8001 10.3834V10.95C4.8001 11.0163 4.77376 11.0799 4.72687 11.1268C4.67999 11.1737 4.6164 11.2 4.5501 11.2ZM6.68341 11.2H6.11675C6.05045 11.2 5.98686 11.1737 5.93998 11.1268C5.89309 11.0799 5.86675 11.0163 5.86675 10.95V10.3834C5.86675 10.3171 5.89309 10.2535 5.93998 10.2066C5.98686 10.1597 6.05045 10.1334 6.11675 10.1334H6.68341C6.74971 10.1334 6.8133 10.1597 6.86019 10.2066C6.90707 10.2535 6.93341 10.3171 6.93341 10.3834V10.95C6.93341 11.0163 6.90707 11.0799 6.86019 11.1268C6.8133 11.1737 6.74971 11.2 6.68341 11.2Z" fill="#3C58A0"/>
    <path d="M13.0755 5.8667H12.5239C12.4906 5.8667 12.4588 5.87326 12.4295 5.88479C12.4776 5.90372 12.5188 5.93669 12.5479 5.97939C12.577 6.02209 12.5926 6.07256 12.5926 6.12423V6.67579C12.5926 6.78467 12.5249 6.87754 12.4295 6.91523C12.4588 6.92679 12.4906 6.93336 12.5239 6.93336H13.0755C13.1438 6.93336 13.2093 6.90622 13.2576 6.85793C13.3059 6.80963 13.333 6.74413 13.3331 6.67582V6.12426C13.333 6.05595 13.3059 5.99045 13.2576 5.94215C13.2093 5.89385 13.1438 5.86671 13.0755 5.8667ZM10.9422 5.8667H10.3906C10.3572 5.8667 10.3254 5.87326 10.2962 5.88479C10.3442 5.90372 10.3855 5.93669 10.4146 5.97939C10.4437 6.02209 10.4592 6.07256 10.4592 6.12423V6.67579C10.4592 6.78467 10.3916 6.87754 10.2962 6.91523C10.3254 6.92679 10.3572 6.93336 10.3906 6.93336H10.9422C10.976 6.93336 11.0095 6.9267 11.0407 6.91376C11.072 6.90082 11.1003 6.88185 11.1243 6.85794C11.1482 6.83402 11.1671 6.80563 11.1801 6.77438C11.193 6.74314 11.1997 6.70964 11.1997 6.67582V6.12426C11.1997 6.09044 11.193 6.05695 11.1801 6.0257C11.1671 5.99445 11.1482 5.96606 11.1243 5.94214C11.1004 5.91822 11.072 5.89925 11.0407 5.88631C11.0095 5.87336 10.976 5.8667 10.9422 5.8667ZM8.80918 5.8667H8.25762C8.22425 5.8667 8.19246 5.87326 8.16318 5.88479C8.25865 5.92248 8.32631 6.01536 8.32631 6.12423V6.67579C8.32631 6.78467 8.25865 6.87754 8.16318 6.91523C8.19246 6.92679 8.22425 6.93336 8.25762 6.93336H8.80918C8.87749 6.93336 8.943 6.90622 8.9913 6.85793C9.0396 6.80963 9.06674 6.74413 9.06675 6.67582V6.12426C9.06674 6.05595 9.0396 5.99045 8.9913 5.94215C8.943 5.89385 8.87749 5.86671 8.80918 5.8667ZM6.67584 5.8667H6.12428C6.0909 5.8667 6.05912 5.87326 6.02984 5.88479C6.12531 5.92248 6.19296 6.01536 6.19296 6.12423V6.67579C6.19296 6.78467 6.12531 6.87754 6.02984 6.91523C6.05912 6.92679 6.0909 6.93336 6.12428 6.93336H6.67584C6.74414 6.93336 6.80965 6.90622 6.85795 6.85793C6.90625 6.80963 6.93339 6.74413 6.9334 6.67582V6.12426C6.93339 6.05595 6.90626 5.99045 6.85795 5.94215C6.80965 5.89385 6.74415 5.86671 6.67584 5.8667ZM4.5425 5.8667H3.99093C3.95756 5.8667 3.92578 5.87326 3.8965 5.88479C3.94457 5.90372 3.98584 5.93669 4.01493 5.97939C4.04401 6.02209 4.05958 6.07256 4.05959 6.12423V6.67579C4.05959 6.78467 3.99193 6.87754 3.8965 6.91523C3.92578 6.92679 3.95756 6.93336 3.99093 6.93336H4.5425C4.6108 6.93336 4.67631 6.90622 4.72461 6.85793C4.77291 6.80963 4.80005 6.74413 4.80006 6.67582V6.12426C4.80006 6.05595 4.77292 5.99044 4.72462 5.94214C4.67632 5.89383 4.61081 5.8667 4.5425 5.8667ZM2.40918 5.8667H1.85762C1.82425 5.8667 1.79246 5.87326 1.76318 5.88479C1.85865 5.92248 1.92631 6.01536 1.92631 6.12423V6.67579C1.92631 6.78467 1.85865 6.87754 1.76318 6.91523C1.79246 6.92679 1.82425 6.93336 1.85762 6.93336H2.40918C2.47749 6.93336 2.543 6.90622 2.5913 6.85793C2.6396 6.80963 2.66674 6.74413 2.66675 6.67582V6.12426C2.66674 6.05595 2.6396 5.99045 2.5913 5.94215C2.543 5.89385 2.47749 5.86671 2.40918 5.8667ZM2.40918 8.00004H1.85762C1.82425 8.00004 1.79246 8.00661 1.76318 8.01814C1.85865 8.05582 1.92631 8.1487 1.92631 8.25757V8.80917C1.92631 8.91804 1.85865 9.01092 1.76318 9.04861C1.79246 9.06017 1.82425 9.06673 1.85762 9.06673H2.40918C2.47749 9.06673 2.543 9.0396 2.5913 8.9913C2.6396 8.94301 2.66674 8.8775 2.66675 8.8092V8.25761C2.66674 8.1893 2.6396 8.12379 2.5913 8.07549C2.543 8.02719 2.47749 8.00005 2.40918 8.00004ZM2.40918 10.1334H1.85762C1.82425 10.1334 1.79246 10.1399 1.76318 10.1515C1.85865 10.1892 1.92631 10.282 1.92631 10.3909V10.9425C1.92631 11.0514 1.85865 11.1443 1.76318 11.182C1.79246 11.1935 1.82425 11.2001 1.85762 11.2001H2.40918C2.47749 11.2001 2.543 11.1729 2.5913 11.1246C2.6396 11.0764 2.66674 11.0108 2.66675 10.9425V10.3909C2.66674 10.3226 2.6396 10.2571 2.5913 10.2088C2.543 10.1605 2.47749 10.1334 2.40918 10.1334ZM4.5425 8.00004H3.99093C3.95756 8.00004 3.92578 8.00661 3.8965 8.01814C3.94457 8.03707 3.98584 8.07003 4.01493 8.11273C4.04401 8.15544 4.05958 8.20591 4.05959 8.25757V8.80917C4.05959 8.91804 3.99193 9.01092 3.8965 9.04861C3.92578 9.06017 3.95756 9.06673 3.99093 9.06673H4.5425C4.6108 9.06673 4.67631 9.0396 4.72461 8.9913C4.77291 8.94301 4.80005 8.8775 4.80006 8.8092V8.25761C4.80006 8.1893 4.77292 8.12378 4.72462 8.07548C4.67632 8.02718 4.61081 8.00004 4.5425 8.00004ZM4.5425 10.1334H3.99093C3.95756 10.1334 3.92578 10.1399 3.8965 10.1515C3.94457 10.1704 3.98584 10.2034 4.01493 10.2461C4.04401 10.2888 4.05958 10.3392 4.05959 10.3909V10.9425C4.05959 11.0514 3.99193 11.1443 3.8965 11.182C3.92578 11.1935 3.95756 11.2001 3.99093 11.2001H4.5425C4.6108 11.2001 4.67631 11.1729 4.72461 11.1246C4.77291 11.0764 4.80005 11.0108 4.80006 10.9425V10.3909C4.80006 10.3571 4.7934 10.3236 4.78046 10.2924C4.76752 10.2611 4.74855 10.2327 4.72463 10.2088C4.70071 10.1849 4.67232 10.1659 4.64107 10.153C4.60981 10.14 4.57632 10.1334 4.5425 10.1334ZM6.67584 8.00004H6.12428C6.0909 8.00004 6.05912 8.00661 6.02984 8.01814C6.12531 8.05582 6.19296 8.1487 6.19296 8.25757V8.80917C6.19296 8.91804 6.12531 9.01092 6.02984 9.04861C6.05912 9.06017 6.0909 9.06673 6.12428 9.06673H6.67584C6.74414 9.06673 6.80965 9.0396 6.85795 8.9913C6.90625 8.94301 6.93339 8.8775 6.9334 8.8092V8.25761C6.93339 8.1893 6.90626 8.12379 6.85795 8.07549C6.80965 8.02719 6.74415 8.00005 6.67584 8.00004ZM9.06671 9.0667V8.25757C9.06671 8.22375 9.06005 8.19026 9.04711 8.15901C9.03416 8.12777 9.01519 8.09938 8.99127 8.07546C8.96736 8.05155 8.93896 8.03258 8.90771 8.01964C8.87647 8.0067 8.84297 8.00004 8.80915 8.00004H8.25759C8.22421 8.00004 8.19243 8.00661 8.16315 8.01814C8.25862 8.05582 8.32628 8.1487 8.32628 8.25757V8.80917C8.32628 8.91804 8.25862 9.01092 8.16315 9.04861C8.19243 9.06017 8.22421 9.06673 8.25759 9.06673H9.06671V9.0667ZM6.67584 10.1334H6.12428C6.0909 10.1334 6.05912 10.1399 6.02984 10.1515C6.12531 10.1892 6.19296 10.282 6.19296 10.3909V10.9425C6.19296 11.0514 6.12531 11.1443 6.02984 11.182C6.05912 11.1935 6.0909 11.2001 6.12428 11.2001H6.67584C6.74414 11.2001 6.80965 11.1729 6.85795 11.1246C6.90625 11.0764 6.93339 11.0108 6.9334 10.9425V10.3909C6.9334 10.3571 6.92674 10.3236 6.9138 10.2924C6.90085 10.2611 6.88188 10.2327 6.85796 10.2088C6.83405 10.1849 6.80565 10.1659 6.7744 10.153C6.74316 10.14 6.70966 10.1334 6.67584 10.1334Z" fill="#2A428C"/>
    <path d="M13.6602 4.49121V12.2666H14.4011V4.79993L13.6602 4.49121Z" fill="#D3DCFB"/>
    <path d="M14.4009 4.80021V2.13352C14.4009 1.54443 13.9233 1.06689 13.3343 1.06689H1.59983C1.01073 1.06689 0.533203 1.54443 0.533203 2.13352V4.80021H14.4009Z" fill="#464C9A"/>
    <path d="M3.89421 2.37496H3.19993C3.1359 2.37496 3.07449 2.34953 3.02921 2.30425C2.98393 2.25897 2.9585 2.19756 2.9585 2.13353C2.9585 2.06949 2.98393 2.00808 3.02921 1.96281C3.07449 1.91753 3.1359 1.89209 3.19993 1.89209H3.89421C3.95825 1.89209 4.01966 1.91753 4.06494 1.96281C4.11022 2.00808 4.13565 2.06949 4.13565 2.13353C4.13565 2.19756 4.11022 2.25897 4.06494 2.30425C4.01966 2.34953 3.95825 2.37496 3.89421 2.37496ZM5.5999 2.37496H4.90562C4.84159 2.37496 4.78018 2.34953 4.7349 2.30425C4.68962 2.25897 4.66418 2.19756 4.66418 2.13353C4.66418 2.06949 4.68962 2.00808 4.7349 1.96281C4.78018 1.91753 4.84159 1.89209 4.90562 1.89209H5.5999C5.73328 1.89209 5.84134 2.00018 5.84134 2.13353C5.84134 2.26687 5.73328 2.37496 5.5999 2.37496ZM10.0279 2.37496H9.33359C9.26956 2.37496 9.20815 2.34953 9.16287 2.30425C9.11759 2.25897 9.09215 2.19756 9.09215 2.13353C9.09215 2.06949 9.11759 2.00808 9.16287 1.96281C9.20815 1.91753 9.26956 1.89209 9.33359 1.89209H10.0279C10.1613 1.89209 10.2693 2.00018 10.2693 2.13353C10.2693 2.26687 10.1613 2.37496 10.0279 2.37496ZM11.7336 2.37496H11.0393C10.9753 2.37496 10.9139 2.34953 10.8686 2.30425C10.8233 2.25897 10.7979 2.19756 10.7979 2.13353C10.7979 2.06949 10.8233 2.00808 10.8686 1.96281C10.9139 1.91753 10.9753 1.89209 11.0393 1.89209H11.7336C11.7977 1.89209 11.8591 1.91753 11.9043 1.96281C11.9496 2.00808 11.9751 2.06949 11.9751 2.13353C11.9751 2.19756 11.9496 2.25897 11.9043 2.30425C11.8591 2.34953 11.7977 2.37496 11.7336 2.37496Z" fill="#181F81"/>
    <path d="M5.06671 2C5.06671 2.36819 4.76824 2.66666 4.40005 2.66666C4.03187 2.66666 3.7334 2.36819 3.7334 2V0.666656C3.73337 0.298469 4.03184 0 4.40002 0C4.76821 0 5.06668 0.298469 5.06668 0.666656V2H5.06671ZM11.2004 2C11.2004 2.36819 10.9019 2.66666 10.5337 2.66666C10.1656 2.66666 9.86705 2.36819 9.86705 2V0.666656C9.86705 0.298469 10.1655 0 10.5337 0C10.9019 0 11.2004 0.298469 11.2004 0.666656V2H11.2004Z" fill="#EBF5FC"/>
    <path d="M10.5333 0C10.3965 0 10.2693 0.041375 10.1635 0.112125C10.3424 0.231688 10.4603 0.435344 10.4603 0.666687V2C10.4603 2.23131 10.3424 2.435 10.1635 2.55456C10.2729 2.62781 10.4017 2.66684 10.5333 2.66669C10.9015 2.66669 11.2 2.36822 11.2 2.00003V0.666656C11.2 0.298469 10.9016 0 10.5333 0ZM4.39966 0C4.26279 0 4.13566 0.041375 4.02979 0.112125C4.20869 0.231688 4.3266 0.435344 4.3266 0.666687V2C4.3266 2.23131 4.20869 2.435 4.02979 2.55456C4.13922 2.62781 4.26797 2.66684 4.39966 2.66669C4.76785 2.66669 5.06632 2.36822 5.06632 2.00003V0.666656C5.06635 0.298469 4.76788 0 4.39966 0Z" fill="#D3DCFB"/>
    <path d="M13.3345 1.06689H12.5938C13.1828 1.06689 13.6604 1.54443 13.6604 2.13352V4.80024H14.4011V2.13355C14.4011 1.54446 13.9235 1.06689 13.3345 1.06689Z" fill="#181F81"/>
    <path d="M0.533203 3.4917H14.4009V3.97461H0.533203V3.4917Z" fill="#181F81"/>
    <path d="M11.4673 16C13.6764 16 15.4673 14.2091 15.4673 12C15.4673 9.79086 13.6764 8 11.4673 8C9.25815 8 7.46729 9.79086 7.46729 12C7.46729 14.2091 9.25815 16 11.4673 16Z" fill="#464C9A"/>
    <path d="M11.467 14.9336C13.0871 14.9336 14.4004 13.6203 14.4004 12.0002C14.4004 10.3802 13.0871 9.06689 11.467 9.06689C9.84699 9.06689 8.53369 10.3802 8.53369 12.0002C8.53369 13.6203 9.84699 14.9336 11.467 14.9336Z" fill="#EBF5FC"/>
    <path d="M11.467 11.7083C11.4353 11.7083 11.4039 11.7021 11.3746 11.6899C11.3453 11.6778 11.3187 11.66 11.2963 11.6376C11.2739 11.6152 11.2561 11.5886 11.244 11.5593C11.2318 11.53 11.2256 11.4986 11.2256 11.4669V10.1335C11.2256 10.0695 11.251 10.0081 11.2963 9.9628C11.3416 9.91753 11.403 9.89209 11.467 9.89209C11.5311 9.89209 11.5925 9.91753 11.6377 9.9628C11.683 10.0081 11.7085 10.0695 11.7085 10.1335V11.4669C11.7085 11.5309 11.683 11.5923 11.6377 11.6376C11.5925 11.6829 11.5311 11.7083 11.467 11.7083ZM12.8004 12.2417H12.0003C11.9363 12.2417 11.8749 12.2162 11.8296 12.1709C11.7843 12.1257 11.7589 12.0642 11.7589 12.0002C11.7589 11.9362 11.7843 11.8748 11.8296 11.8295C11.8749 11.7842 11.9363 11.7588 12.0003 11.7588H12.8004C12.8644 11.7588 12.9258 11.7842 12.9711 11.8295C13.0164 11.8748 13.0418 11.9362 13.0418 12.0002C13.0418 12.0642 13.0164 12.1257 12.9711 12.1709C12.9258 12.2162 12.8644 12.2417 12.8004 12.2417Z" fill="#3C58A0"/>
    <path d="M11.4669 8C11.3421 8 11.2186 8.00603 11.0967 8.01722C13.1322 8.20406 14.7265 9.91572 14.7265 12C14.7265 14.0843 13.1322 15.7959 11.0967 15.9828C11.2186 15.994 11.3421 16 11.4669 16C13.676 16 15.4669 14.2091 15.4669 12C15.4669 9.79087 13.6761 8 11.4669 8Z" fill="#181F81"/>
    <path d="M11.4671 9.06689C11.3418 9.06689 11.2184 9.0748 11.0972 9.09005C12.5425 9.27196 13.6605 10.5055 13.6605 12.0002C13.6605 13.495 12.5425 14.7285 11.0972 14.9104C11.2184 14.9257 11.3418 14.9336 11.4671 14.9336C13.0872 14.9336 14.4005 13.6203 14.4005 12.0002C14.4005 10.3802 13.0872 9.06689 11.4671 9.06689Z" fill="#D3DCFB"/>
    <path d="M11.4669 12.5335C11.7615 12.5335 12.0003 12.2947 12.0003 12.0001C12.0003 11.7056 11.7615 11.4668 11.4669 11.4668C11.1724 11.4668 10.9336 11.7056 10.9336 12.0001C10.9336 12.2947 11.1724 12.5335 11.4669 12.5335Z" fill="#FFDD40"/>
</svg>
