<svg width="22" height="22" viewBox="0 0 22 22" fill="none" xmlns="http://www.w3.org/2000/svg">
    <path d="M10.75 21.5C16.6871 21.5 21.5 16.6871 21.5 10.75C21.5 4.81294 16.6871 0 10.75 0C4.81294 0 0 4.81294 0 10.75C0 16.6871 4.81294 21.5 10.75 21.5Z" fill="white"/>
    <path d="M10.75 7.75C11.5784 7.75 12.25 7.07843 12.25 6.25C12.25 5.42157 11.5784 4.75 10.75 4.75C9.92157 4.75 9.25 5.42157 9.25 6.25C9.25 7.07843 9.92157 7.75 10.75 7.75Z" fill="#181F81"/>
    <path d="M11.25 9.25H10.25C9.69772 9.25 9.25 9.69772 9.25 10.25V16.25C9.25 16.8023 9.69772 17.25 10.25 17.25H11.25C11.8023 17.25 12.25 16.8023 12.25 16.25V10.25C12.25 9.69772 11.8023 9.25 11.25 9.25Z" fill="#181F81"/>
</svg>
