<svg width="68" height="24" viewBox="0 0 68 24" fill="none" xmlns="http://www.w3.org/2000/svg">
<g clip-path="url(#clip0_8124_1025)">
<path d="M29.0795 2.61094C29.0795 1.17127 27.9082 0 26.4686 0C23.0048 0.143438 23.0058 5.079 26.4686 5.22188C27.9083 5.22188 29.0795 4.05061 29.0795 2.61094Z" fill="#A3A3A3"/>
<path d="M30.9375 10.4938V9.69066C30.6913 3.76073 22.244 3.76533 22 9.69061V10.4937C22 10.882 22.3148 11.1968 22.7031 11.1968H30.2344C30.6227 11.1969 30.9375 10.8821 30.9375 10.4938ZM44.1422 2.61094C44.1422 1.17127 42.9709 0 41.5313 0C38.0675 0.143438 38.0685 5.079 41.5313 5.22188C42.9709 5.22188 44.1422 4.05061 44.1422 2.61094ZM41.5313 5.22188C39.0672 5.22188 37.0625 7.22658 37.0625 9.69061V10.4937C37.0625 10.882 37.3773 11.1968 37.7657 11.1968H45.2969C45.6852 11.1968 46 10.882 46 10.4937V9.69061C46 7.22658 43.9953 5.22188 41.5313 5.22188ZM26.4188 12.7531C26.4188 12.703 26.4197 12.6531 26.4206 12.6031H25.0144C24.9584 15.6172 26.4195 18.3403 28.6821 19.9985C28.8833 19.5717 29.1351 19.1705 29.4321 18.8038C27.6017 17.4198 26.4188 15.2247 26.4188 12.7531ZM30.8971 5.83411C32.7672 4.9583 35.2328 4.9583 37.1029 5.83411C37.437 5.45096 37.8189 5.11241 38.2394 4.82681C35.7506 3.4253 32.2495 3.42534 29.7606 4.82681C30.1811 5.11244 30.563 5.45099 30.8971 5.83411ZM41.5794 12.6031C41.634 15.1151 40.4356 17.3969 38.5679 18.8038C38.8649 19.1705 39.1167 19.5717 39.3179 19.9985C41.5804 18.3404 43.0416 15.6171 42.9856 12.6031H41.5794ZM36.6109 15.414C36.6109 13.9744 35.4397 12.8031 34 12.8031C30.5362 12.9465 30.5372 17.8821 34 18.025C35.4397 18.025 36.6109 16.8538 36.6109 15.414ZM34 18.025C31.5359 18.025 29.5313 20.0297 29.5313 22.4937V23.2969C29.5313 23.6852 29.8461 24 30.2344 24H37.7657C38.154 24 38.4688 23.6852 38.4688 23.2969V22.4938C38.4687 20.0297 36.4641 18.025 34 18.025Z" fill="#A3A3A3"/>
</g>
<defs>
<clipPath id="clip0_8124_1025">
<rect width="24" height="24" fill="white" transform="translate(22)"/>
</clipPath>
</defs>
</svg>
