<svg width="68" height="24" viewBox="0 0 68 24" fill="none" xmlns="http://www.w3.org/2000/svg">
<g clip-path="url(#clip0_8124_1071)">
<path d="M45.3529 10.4388L45.3513 10.4372L35.5612 0.647484C35.1439 0.229922 34.589 0 33.9989 0C33.4088 0 32.854 0.229781 32.4365 0.647297L22.6515 10.432C22.6482 10.4353 22.6449 10.4388 22.6416 10.4421C21.7847 11.304 21.7862 12.7023 22.6459 13.562C23.0386 13.955 23.5573 14.1825 24.112 14.2064C24.1345 14.2086 24.1572 14.2096 24.1801 14.2096H24.5703V21.4143C24.5703 22.84 25.7302 24 27.1563 24H30.9864C31.3746 24 31.6895 23.6852 31.6895 23.2969V17.6484C31.6895 16.9979 32.2188 16.4687 32.8693 16.4687H35.1285C35.7791 16.4687 36.3082 16.9979 36.3082 17.6484V23.2969C36.3082 23.6852 36.623 24 37.0114 24H40.8416C42.2676 24 43.4276 22.84 43.4276 21.4144V14.2097H43.7894C44.3794 14.2097 44.9342 13.9799 45.3518 13.5624C46.2125 12.7013 46.2128 11.3005 45.3529 10.4388Z" fill="#A3A3A3"/>
</g>
<defs>
<clipPath id="clip0_8124_1071">
<rect width="24" height="24" fill="white" transform="translate(22)"/>
</clipPath>
</defs>
</svg>
