<svg width="16" height="16" viewBox="0 0 16 16" fill="none" xmlns="http://www.w3.org/2000/svg">
    <g clip-path="url(#clip0_8079_1387)">
        <path d="M8 16C12.4183 16 16 12.4183 16 8C16 3.58172 12.4183 0 8 0C3.58172 0 0 3.58172 0 8C0 12.4183 3.58172 16 8 16Z" fill="#181F81"/>
        <path fill-rule="evenodd" clip-rule="evenodd" d="M8.00012 2.79639C10.1886 2.79639 11.9626 4.57043 11.9626 6.75891C11.9626 8.94732 8.00012 13.2034 8.00012 13.2034C8.00012 13.2034 4.0376 8.94732 4.0376 6.75891C4.0376 4.57043 5.81164 2.79639 8.00012 2.79639ZM8.00012 5.18454C8.82985 5.18454 9.50273 5.85743 9.50273 6.68722C9.50273 7.51695 8.82985 8.18984 8.00012 8.18984C7.17039 8.18984 6.4975 7.51695 6.4975 6.68722C6.4975 5.85743 7.17039 5.18454 8.00012 5.18454Z" fill="white"/>
    </g>
    <defs>
        <clipPath id="clip0_8079_1387">
            <rect width="16" height="16" fill="white"/>
        </clipPath>
    </defs>
</svg>
