<svg width="24" height="25" viewBox="0 0 24 25" fill="none" xmlns="http://www.w3.org/2000/svg">
    <path fill-rule="evenodd" clip-rule="evenodd" d="M12.9696 15.7196C13.1102 15.579 13.301 15.5 13.4998 15.5C13.6987 15.5 13.8894 15.579 14.0301 15.7196L17.2498 18.9393L20.4696 15.7196C20.611 15.583 20.8005 15.5074 20.9971 15.5091C21.1938 15.5108 21.3819 15.5897 21.521 15.7287C21.66 15.8678 21.7389 16.0559 21.7406 16.2525C21.7423 16.4492 21.6667 16.6386 21.5301 16.7801L17.7801 20.5301C17.6394 20.6707 17.4487 20.7497 17.2498 20.7497C17.051 20.7497 16.8602 20.6707 16.7196 20.5301L12.9696 16.7801C12.829 16.6394 12.75 16.4487 12.75 16.2498C12.75 16.051 12.829 15.8602 12.9696 15.7196Z" fill="black"/>
    <path fill-rule="evenodd" clip-rule="evenodd" d="M17.25 10.25C17.4489 10.25 17.6397 10.329 17.7803 10.4697C17.921 10.6103 18 10.8011 18 11V20C18 20.1989 17.921 20.3897 17.7803 20.5303C17.6397 20.671 17.4489 20.75 17.25 20.75C17.0511 20.75 16.8603 20.671 16.7197 20.5303C16.579 20.3897 16.5 20.1989 16.5 20V11C16.5 10.8011 16.579 10.6103 16.7197 10.4697C16.8603 10.329 17.0511 10.25 17.25 10.25ZM3.75 12.5C3.75 12.3011 3.82902 12.1103 3.96967 11.9697C4.11032 11.829 4.30109 11.75 4.5 11.75H11.25C11.4489 11.75 11.6397 11.829 11.7803 11.9697C11.921 12.1103 12 12.3011 12 12.5C12 12.6989 11.921 12.8897 11.7803 13.0303C11.6397 13.171 11.4489 13.25 11.25 13.25H4.5C4.30109 13.25 4.11032 13.171 3.96967 13.0303C3.82902 12.8897 3.75 12.6989 3.75 12.5ZM3.75 6.5C3.75 6.30109 3.82902 6.11032 3.96967 5.96967C4.11032 5.82902 4.30109 5.75 4.5 5.75H17.25C17.4489 5.75 17.6397 5.82902 17.7803 5.96967C17.921 6.11032 18 6.30109 18 6.5C18 6.69891 17.921 6.88968 17.7803 7.03033C17.6397 7.17098 17.4489 7.25 17.25 7.25H4.5C4.30109 7.25 4.11032 7.17098 3.96967 7.03033C3.82902 6.88968 3.75 6.69891 3.75 6.5ZM3.75 18.5C3.75 18.3011 3.82902 18.1103 3.96967 17.9697C4.11032 17.829 4.30109 17.75 4.5 17.75H9.75C9.94891 17.75 10.1397 17.829 10.2803 17.9697C10.421 18.1103 10.5 18.3011 10.5 18.5C10.5 18.6989 10.421 18.8897 10.2803 19.0303C10.1397 19.171 9.94891 19.25 9.75 19.25H4.5C4.30109 19.25 4.11032 19.171 3.96967 19.0303C3.82902 18.8897 3.75 18.6989 3.75 18.5Z" fill="black"/>
</svg>
