<svg width="68" height="24" viewBox="0 0 68 24" fill="none" xmlns="http://www.w3.org/2000/svg">
<path d="M36.8594 1.4541H24.1094C22.9421 1.4541 22 2.39624 22 3.56348V12.001C22 13.1681 22.9421 14.1104 24.1094 14.1104H24.8125V16.2197C24.8125 16.7277 25.3385 17.0956 25.8531 16.8385C25.8672 16.8244 25.8954 16.8244 25.9094 16.8103C29.7774 14.2165 28.9105 14.7948 29.7766 14.2228C29.8891 14.1525 30.0156 14.1104 30.1562 14.1104H36.8594C38.0266 14.1104 38.9688 13.1681 38.9688 12.001V3.56348C38.9688 2.39624 38.0266 1.4541 36.8594 1.4541ZM31.2344 9.8916H25.5156C24.5888 9.8916 24.585 8.48535 25.5156 8.48535H31.2344C32.1612 8.48535 32.165 9.8916 31.2344 9.8916ZM35.4531 7.0791H25.5156C24.5888 7.0791 24.585 5.67285 25.5156 5.67285H35.4531C36.38 5.67285 36.3838 7.0791 35.4531 7.0791Z" fill="#A3A3A3"/>
<path d="M43.8906 7.0791H40.375V12.001C40.375 13.9416 38.8 15.5166 36.8594 15.5166H30.3672L29.0312 16.4025V17.626C29.0312 18.7931 29.9734 19.7354 31.1406 19.7354H38.0546L42.0906 22.4353C42.6415 22.7412 43.1875 22.3692 43.1875 21.8447V19.7354H43.8906C45.0579 19.7354 46 18.7931 46 17.626V9.18848C46 8.02129 45.0579 7.0791 43.8906 7.0791Z" fill="#A3A3A3"/>
</svg>
