<svg width="20" height="20" viewBox="0 0 20 20" fill="none" xmlns="http://www.w3.org/2000/svg">
    <path d="M19.8284 0.171624C19.7473 0.0905406 19.6442 0.0350296 19.5319 0.0119702C19.4196 -0.0110892 19.3029 -0.000683422 19.1965 0.0418981L0.368354 7.57306C0.262939 7.61525 0.172053 7.68717 0.106747 7.78006C0.0414408 7.87294 0.00452657 7.9828 0.000492189 8.09628C-0.00354219 8.20975 0.0254771 8.32196 0.0840221 8.41925C0.142567 8.51654 0.228116 8.59473 0.330268 8.6443L7.75478 12.2451L11.3556 19.6696C11.4052 19.7718 11.4833 19.8574 11.5806 19.916C11.6779 19.9746 11.7901 20.0036 11.9036 19.9996C12.0171 19.9955 12.127 19.9586 12.2199 19.8933C12.3128 19.8279 12.3847 19.737 12.4268 19.6316L19.9581 0.803576C20.0007 0.697106 20.0111 0.580479 19.988 0.468147C19.965 0.355815 19.9095 0.252716 19.8284 0.171624ZM2.03491 8.1686L16.9812 2.19014L8.07385 11.0974L2.03491 8.1686ZM11.8313 17.965L8.90248 11.926L17.8099 3.01873L11.8313 17.965Z" fill="white"/>
</svg>
