<svg width="16" height="16" viewBox="0 0 16 16" fill="none" xmlns="http://www.w3.org/2000/svg">
    <path d="M0.39078 9.33341L4.85904 4.87277L9.33543 0.404069C9.85684 -0.11646 10.7052 -0.11646 11.2267 0.404069L11.2391 0.416475C11.4645 0.641537 11.5514 0.968817 11.4661 1.2705C11.441 1.35921 11.44 1.45301 11.4632 1.54223C11.4864 1.63145 11.533 1.71286 11.5982 1.77806C11.7308 1.91044 11.9257 1.96097 12.1066 1.91C12.4089 1.82481 12.7368 1.91153 12.9622 2.13659L13.8734 3.04625C14.0988 3.27131 14.1858 3.59859 14.1004 3.90027C14.0753 3.98898 14.0743 4.08278 14.0975 4.172C14.1207 4.26122 14.1673 4.34263 14.2325 4.40783C14.2979 4.47293 14.3795 4.51946 14.4688 4.54265C14.5582 4.56583 14.6521 4.56484 14.7409 4.53977C15.0432 4.45458 15.3711 4.5413 15.5965 4.76636L15.6089 4.77871C16.1303 5.29924 16.1303 6.14617 15.6089 6.6667L11.1543 11.1137L6.66419 15.5961C6.41219 15.8477 6.07638 15.9862 5.71854 15.9862C5.3607 15.9862 5.02489 15.8477 4.77292 15.5961C4.54192 15.3655 4.45904 15.0281 4.55667 14.7157C4.58506 14.6255 4.58813 14.5292 4.56555 14.4374C4.54296 14.3456 4.49559 14.2617 4.42861 14.195C4.29195 14.0585 4.09202 14.0096 3.90711 14.0671C3.59395 14.1645 3.25602 14.0818 3.02508 13.8512L2.13868 12.9663C1.90768 12.7357 1.82481 12.3984 1.92243 12.0859C1.95082 11.9957 1.9539 11.8995 1.93131 11.8076C1.90873 11.7158 1.86136 11.632 1.79437 11.5652C1.72742 11.4983 1.64342 11.451 1.55148 11.4285C1.45954 11.4059 1.36319 11.409 1.27287 11.4373C0.959715 11.5348 0.62181 11.4521 0.390842 11.2215C0.138781 10.9699 0 10.6346 0 10.2774C0 9.92022 0.138781 9.58494 0.39078 9.33341Z" fill="#464C9A"/>
    <path d="M0.39078 9.3332L4.85904 4.87256L11.1543 11.1135L6.66419 15.5959C6.41219 15.8475 6.07638 15.986 5.71854 15.986C5.36073 15.986 5.02489 15.8475 4.77292 15.5959C4.54192 15.3653 4.45904 15.0279 4.55667 14.7155C4.58506 14.6253 4.58813 14.529 4.56555 14.4372C4.54296 14.3454 4.49559 14.2615 4.42861 14.1948C4.29195 14.0583 4.09202 14.0094 3.90711 14.0669C3.59395 14.1643 3.25602 14.0816 3.02508 13.851L2.13868 12.9661C1.90768 12.7355 1.82481 12.3982 1.92243 12.0857C1.95082 11.9955 1.9539 11.8992 1.93131 11.8074C1.90873 11.7156 1.86136 11.6318 1.79437 11.565C1.72742 11.4981 1.64342 11.4508 1.55148 11.4283C1.45954 11.4057 1.36319 11.4088 1.27287 11.4371C0.959715 11.5346 0.62181 11.4519 0.390842 11.2213C0.138781 10.9697 0 10.6344 0 10.2772C0 9.92001 0.138781 9.58473 0.39078 9.3332Z" fill="#181F81"/>
    <path d="M12.6362 6.6698C12.7836 6.6698 12.9308 6.61362 13.0432 6.50118C13.2681 6.27637 13.2681 5.91187 13.0432 5.68705L11.6257 4.26952L10.1937 2.83755C9.96893 2.61274 9.60443 2.61274 9.37962 2.83755C9.1548 3.06237 9.1548 3.42687 9.37962 3.65168L10.6279 4.89993L12.2291 6.50118C12.2825 6.55472 12.346 6.59719 12.4158 6.62612C12.4857 6.65506 12.5606 6.66991 12.6362 6.6698ZM10.6579 6.95587C10.8052 6.95587 10.9525 6.89968 11.0649 6.78724C11.2897 6.56243 11.2897 6.19793 11.0649 5.97312L10.5043 5.41255L9.92512 4.8333C9.7003 4.60849 9.3358 4.60852 9.11099 4.8333C8.88618 5.05812 8.88618 5.42262 9.11099 5.64743L9.58665 6.12305L10.2508 6.78721C10.3042 6.84075 10.3677 6.88322 10.4375 6.91216C10.5074 6.94111 10.5823 6.95596 10.6579 6.95587Z" fill="#B7BAD8"/>
    <path d="M3.114 9.1434L4.22665 8.03075C4.422 7.83541 4.68225 7.72778 4.95937 7.72778C5.23649 7.72778 5.49671 7.83541 5.69209 8.03075L7.89023 10.2289C8.08558 10.4242 8.1932 10.6845 8.1932 10.9616C8.1932 11.2387 8.08558 11.499 7.89023 11.6943L6.77758 12.807C6.58224 13.0023 6.32199 13.11 6.04487 13.11C5.76774 13.11 5.50752 13.0023 5.31215 12.807L3.114 10.6088C2.91866 10.4135 2.81104 10.1532 2.81104 9.87612C2.81104 9.599 2.91863 9.33875 3.114 9.1434ZM9.37967 2.83755C9.60448 2.61274 9.96898 2.61274 10.1938 2.83755L11.6258 4.26952L10.818 5.08998L9.37967 3.65168C9.15489 3.42686 9.15489 3.06237 9.37967 2.83755ZM9.11101 4.83323C9.33582 4.60842 9.70032 4.60842 9.92513 4.83323L10.5008 5.40892L9.69301 6.22938L9.11095 5.64739C8.88623 5.42254 8.88623 5.05808 9.11101 4.83323Z" fill="#F6F6F6"/>
</svg>
