<svg width="24" height="24" viewBox="0 0 24 24" fill="none" xmlns="http://www.w3.org/2000/svg">
<path d="M14.8137 15.9995C14.6824 15.8682 14.5043 15.7945 14.3187 15.7945C14.133 15.7945 13.955 15.8682 13.8237 15.9995C13.6924 16.1308 13.6187 16.3088 13.6187 16.4945C13.6187 16.6802 13.6924 16.8582 13.8237 16.9895L15.6821 18.8479C15.7471 18.9129 15.8243 18.9645 15.9092 18.9997C15.9941 19.0348 16.0852 19.053 16.1771 19.053C16.269 19.053 16.3601 19.0348 16.445 18.9997C16.5299 18.9645 16.6071 18.9129 16.6721 18.8479L22.4861 13.0339C22.6174 12.9026 22.6911 12.7246 22.6911 12.5389C22.6911 12.3532 22.6174 12.1752 22.4861 12.0439C22.3548 11.9126 22.1768 11.8389 21.9911 11.8389C21.8054 11.8389 21.6274 11.9126 21.4961 12.0439L16.1761 17.3639L14.8137 15.9995Z" fill="#313131"/>
<path d="M16.3245 21.6306C17.6865 21.6306 18.9927 21.0895 19.9558 20.1265C20.919 19.1634 21.46 17.8572 21.4601 16.4952C21.4601 16.3858 21.4567 16.2752 21.4497 16.166C21.4439 16.0742 21.4201 15.9845 21.3796 15.902C21.3391 15.8195 21.2827 15.7457 21.2138 15.685C21.0744 15.5623 20.8921 15.4999 20.7068 15.5117C20.6151 15.5175 20.5254 15.5413 20.4428 15.5818C20.3603 15.6223 20.2865 15.6786 20.2258 15.7476C20.1031 15.8869 20.0408 16.0693 20.0525 16.2546C20.0575 16.3346 20.0601 16.4146 20.0601 16.4946C20.0601 18.5546 18.3843 20.2302 16.3245 20.2302C14.2647 20.2302 12.5891 18.5548 12.5891 16.4952C12.5891 14.4356 14.2647 12.7596 16.3245 12.7596C17.1821 12.756 18.0141 13.051 18.6779 13.594C18.8224 13.7072 19.0056 13.7591 19.188 13.7385C19.3704 13.718 19.5374 13.6266 19.6531 13.4841C19.7687 13.3416 19.8238 13.1593 19.8064 12.9766C19.789 12.7939 19.7006 12.6253 19.5601 12.5072C18.9218 11.9892 18.1685 11.632 17.3634 11.4656C16.5584 11.2993 15.7252 11.3286 14.9339 11.5511C14.1425 11.7737 13.4161 12.1829 12.8158 12.7444C12.2155 13.306 11.7587 14.0035 11.4839 14.7782C11.2091 15.553 11.1243 16.3823 11.2366 17.1967C11.349 18.011 11.6551 18.7865 12.1294 19.4579C12.6036 20.1293 13.2322 20.6771 13.9621 21.0552C14.692 21.4333 15.5021 21.6306 16.3241 21.6306H16.3245Z" fill="#313131"/>
<path d="M6.66191 20.131H10.8665C11.0522 20.131 11.2302 20.0572 11.3615 19.9259C11.4928 19.7947 11.5665 19.6166 11.5665 19.431C11.5665 19.2453 11.4928 19.0673 11.3615 18.936C11.2302 18.8047 11.0522 18.731 10.8665 18.731H6.66191C6.36151 18.7306 6.07351 18.6112 5.8611 18.3988C5.6487 18.1864 5.52922 17.8984 5.52891 17.598V11.066H19.0217C19.0261 11.2516 19.104 11.4279 19.2383 11.5561C19.3727 11.6843 19.5525 11.7539 19.7381 11.7496C19.9238 11.7452 20.1001 11.6673 20.2283 11.5329C20.3565 11.3986 20.4261 11.2188 20.4217 11.0332V7.88116C20.421 7.20946 20.1537 6.56549 19.6787 6.0906C19.2037 5.61571 18.5596 5.34869 17.8879 5.34816H16.2185V4.56816C16.2185 4.38251 16.1448 4.20446 16.0135 4.07319C15.8822 3.94191 15.7042 3.86816 15.5185 3.86816C15.3329 3.86816 15.1548 3.94191 15.0235 4.07319C14.8923 4.20446 14.8185 4.38251 14.8185 4.56816V5.34816H9.87491V4.56816C9.87491 4.38251 9.80116 4.20446 9.66988 4.07319C9.53861 3.94191 9.36056 3.86816 9.17491 3.86816C8.98925 3.86816 8.81121 3.94191 8.67993 4.07319C8.54866 4.20446 8.47491 4.38251 8.47491 4.56816V5.34816H6.66191C5.99034 5.34891 5.34649 5.61601 4.87162 6.09088C4.39675 6.56575 4.12965 7.2096 4.12891 7.88116V17.598C4.12965 18.2695 4.39675 18.9134 4.87162 19.3882C5.34649 19.8631 5.99034 20.1302 6.66191 20.131ZM5.52891 7.88116C5.52922 7.58077 5.6487 7.29277 5.8611 7.08036C6.07351 6.86795 6.36151 6.74848 6.66191 6.74816H17.8879C18.1881 6.74875 18.4759 6.86833 18.6881 7.08072C18.9003 7.2931 19.0196 7.58094 19.0199 7.88116V9.86576H5.52891V7.88116Z" fill="#313131"/>
</svg>
