<svg width="24" height="25" viewBox="0 0 24 25" fill="none" xmlns="http://www.w3.org/2000/svg">
    <path d="M17.8333 5.50016C17.1333 5.50016 16.6667 5.0335 16.6667 4.3335V2.00016C16.6667 1.30016 17.1333 0.833496 17.8333 0.833496C18.5333 0.833496 19 1.30016 19 2.00016V4.3335C19 5.0335 18.5333 5.50016 17.8333 5.50016ZM6.16667 5.50016C5.46667 5.50016 5 5.0335 5 4.3335V2.00016C5 1.30016 5.46667 0.833496 6.16667 0.833496C6.86667 0.833496 7.33333 1.30016 7.33333 2.00016V4.3335C7.33333 5.0335 6.86667 5.50016 6.16667 5.50016ZM17.8333 24.1668C17.1333 24.1668 16.6667 23.7002 16.6667 23.0002V13.6668C16.6667 12.9668 17.1333 12.5002 17.8333 12.5002C18.5333 12.5002 19 12.9668 19 13.6668V23.0002C19 23.7002 18.5333 24.1668 17.8333 24.1668Z" fill="black"/>
    <path d="M22.5 19.5003H13.1667C12.4667 19.5003 12 19.0337 12 18.3337C12 17.6337 12.4667 17.167 13.1667 17.167H22.5C23.2 17.167 23.6667 17.6337 23.6667 18.3337C23.6667 19.0337 23.2 19.5003 22.5 19.5003Z" fill="black"/>
    <path d="M7.3335 24.167H4.1835C3.1335 24.167 2.66683 24.0503 2.0835 23.817C1.50016 23.5837 1.15016 23.117 0.800163 22.6503C0.450163 22.067 0.333496 21.4837 0.333496 20.5503V6.90033C0.333496 5.96699 0.450163 5.38366 0.800163 4.80033C1.15016 4.33366 1.50016 3.86699 2.0835 3.63366C2.66683 3.28366 3.1335 3.16699 4.1835 3.16699H19.8168C20.8668 3.16699 21.3335 3.28366 21.9168 3.51699C22.5002 3.75033 22.8502 4.21699 23.2002 4.68366C23.6668 5.50033 23.6668 7.25033 23.6668 7.83366C23.6668 8.53366 23.2002 9.00033 22.5002 9.00033C21.8002 9.00033 21.3335 8.53366 21.3335 7.83366C21.3335 6.90033 21.2168 6.08366 21.2168 5.85033L20.9835 5.61699C20.7502 5.61699 20.6335 5.50033 19.8168 5.50033H4.1835C3.36683 5.50033 3.25016 5.61699 3.1335 5.61699L2.7835 5.96699C2.7835 5.96699 2.66683 6.08366 2.66683 6.90033V20.5503C2.66683 21.2503 2.7835 21.367 2.7835 21.4837C2.90016 21.6003 2.90016 21.717 3.1335 21.717C3.25016 21.717 3.36683 21.8337 4.1835 21.8337H7.3335C8.0335 21.8337 8.50016 22.3003 8.50016 23.0003C8.50016 23.7003 8.0335 24.167 7.3335 24.167Z" fill="black"/>
</svg>
