<svg width="68" height="24" viewBox="0 0 68 24" fill="none" xmlns="http://www.w3.org/2000/svg">
<path d="M34 0C30.5107 0 27.6719 2.8388 27.6719 6.32812C27.6719 9.81745 30.5107 12.6562 34 12.6562C37.4893 12.6562 40.3281 9.81745 40.3281 6.32812C40.3281 2.8388 37.4893 0 34 0ZM41.8734 16.7904C40.1409 15.0313 37.8442 14.0625 35.4062 14.0625H32.5938C30.1559 14.0625 27.8591 15.0313 26.1266 16.7904C24.4026 18.5409 23.4531 20.8515 23.4531 23.2969C23.4531 23.6852 23.7679 24 24.1562 24H43.8438C44.2321 24 44.5469 23.6852 44.5469 23.2969C44.5469 20.8515 43.5974 18.5409 41.8734 16.7904Z" fill="#A3A3A3"/>
</svg>
