<svg width="21" height="21" viewBox="0 0 21 21" fill="none" xmlns="http://www.w3.org/2000/svg">
<path d="M8.009 8.75C8.84957 8.75 9.67126 8.50074 10.3702 8.03375C11.0691 7.56675 11.6138 6.90299 11.9355 6.12641C12.2572 5.34982 12.3413 4.49529 12.1773 3.67087C12.0134 2.84645 11.6086 2.08917 11.0142 1.4948C10.4198 0.900425 9.66255 0.495652 8.83813 0.331664C8.01371 0.167677 7.15918 0.251841 6.3826 0.573514C5.60601 0.895186 4.94225 1.43992 4.47525 2.13883C4.00826 2.83774 3.759 3.65943 3.759 4.5C3.76032 5.62677 4.20851 6.707 5.00526 7.50374C5.802 8.30049 6.88224 8.74868 8.009 8.75ZM8.009 1.75C8.5529 1.75 9.08458 1.91129 9.53682 2.21346C9.98905 2.51563 10.3415 2.94513 10.5497 3.44762C10.7578 3.95012 10.8123 4.50305 10.7062 5.0365C10.6 5.56995 10.3381 6.05995 9.95354 6.44455C9.56895 6.82914 9.07895 7.09105 8.5455 7.19716C8.01205 7.30327 7.45912 7.24881 6.95662 7.04067C6.45412 6.83253 6.02463 6.48005 5.72246 6.02782C5.42028 5.57558 5.259 5.0439 5.259 4.5C5.25979 3.7709 5.54978 3.07189 6.06533 2.55634C6.58089 2.04078 7.2799 1.7508 8.009 1.75ZM1.75 16.02C1.75 17.583 2.423 18.25 4 18.25H8C8.19891 18.25 8.38968 18.329 8.53033 18.4697C8.67098 18.6103 8.75 18.8011 8.75 19C8.75 19.1989 8.67098 19.3897 8.53033 19.5303C8.38968 19.671 8.19891 19.75 8 19.75H4C1.582 19.75 0.25 18.425 0.25 16.02C0.25 13.358 1.756 10.25 6 10.25H10C10.7706 10.2366 11.5373 10.3612 12.264 10.618C12.4364 10.6973 12.5723 10.839 12.6443 11.0146C12.7163 11.1901 12.7192 11.3864 12.6522 11.564C12.5852 11.7415 12.4535 11.8871 12.2835 11.9713C12.1135 12.0556 11.9178 12.0723 11.736 12.018C11.1779 11.826 10.59 11.7352 10 11.75H6C5.42893 11.706 4.85512 11.7864 4.31816 11.9857C3.7812 12.185 3.29388 12.4985 2.88983 12.9044C2.48578 13.3104 2.17462 13.7992 1.97783 14.3371C1.78105 14.875 1.70331 15.4492 1.75 16.02ZM20.237 11.876L19.123 10.763C18.9611 10.5998 18.7684 10.4703 18.556 10.3823C18.3437 10.2942 18.1159 10.2492 17.886 10.25C17.6558 10.2495 17.4278 10.2948 17.2153 10.3832C17.0028 10.4716 16.8099 10.6014 16.648 10.765L10.471 16.971C10.4014 17.0404 10.3462 17.1228 10.3087 17.2136C10.2711 17.3044 10.2518 17.4017 10.252 17.5V20C10.252 20.1989 10.331 20.3897 10.4717 20.5303C10.6123 20.671 10.8031 20.75 11.002 20.75H13.502C13.7001 20.7498 13.8902 20.6714 14.031 20.532L20.231 14.354C20.3942 14.1916 20.5237 13.9985 20.6121 13.7859C20.7005 13.5733 20.746 13.3453 20.746 13.115C20.746 12.8847 20.7005 12.6568 20.6121 12.4441C20.5237 12.2315 20.3942 12.0384 20.231 11.876H20.237ZM13.19 19.25H11.75V17.81L15.872 13.669L17.331 15.128L13.19 19.25ZM19.176 13.291L18.394 14.07L16.931 12.606L17.71 11.823C17.733 11.7998 17.7605 11.7814 17.7907 11.7688C17.8209 11.7563 17.8533 11.7499 17.886 11.75C17.9523 11.7501 18.0159 11.7763 18.063 11.823L19.177 12.937C19.2004 12.9599 19.2188 12.9873 19.2314 13.0176C19.2439 13.0478 19.2503 13.0803 19.25 13.113C19.2501 13.1461 19.2435 13.1789 19.2308 13.2094C19.2181 13.24 19.1995 13.2677 19.176 13.291Z" fill="#313131"/>
</svg>
