<svg width="12" height="12" viewBox="0 0 12 12" fill="none" xmlns="http://www.w3.org/2000/svg">
    <path d="M6 12C9.31371 12 12 9.31371 12 6C12 2.68629 9.31371 0 6 0C2.68629 0 0 2.68629 0 6C0 9.31371 2.68629 12 6 12Z" fill="#E21B1B"/>
    <path d="M11.9597 6.68685L8.62298 3.3501L3.52148 8.63929L6.82448 11.9423C9.52392 11.571 11.6498 9.40522 11.9597 6.68685Z" fill="#C40606"/>
    <path d="M8.30571 8.70786C8.24414 8.70793 8.18316 8.69584 8.12627 8.67229C8.06939 8.64874 8.01771 8.61418 7.97421 8.57061L3.43146 4.02767C3.24827 3.84448 3.24827 3.54786 3.43146 3.36486C3.61465 3.18186 3.91127 3.18167 4.09427 3.36486L8.63721 7.9078C8.8204 8.09098 8.8204 8.38761 8.63721 8.57061C8.59371 8.61418 8.54203 8.64874 8.48514 8.67229C8.42826 8.69584 8.36728 8.70793 8.30571 8.70786Z" fill="white"/>
    <path d="M3.76271 8.70793C3.70114 8.708 3.64017 8.69591 3.58328 8.67236C3.52639 8.64881 3.47471 8.61425 3.43121 8.57068C3.24803 8.38749 3.24803 8.09087 3.43121 7.90787L7.97415 3.36493C8.15734 3.18174 8.45396 3.18174 8.63696 3.36493C8.81996 3.54812 8.82015 3.84474 8.63696 4.02774L4.09421 8.57068C4.05072 8.61427 3.99905 8.64883 3.94216 8.67238C3.88527 8.69594 3.82429 8.70802 3.76271 8.70793Z" fill="white"/>
</svg>
