<svg width="24" height="24" viewBox="0 0 24 24" fill="none" xmlns="http://www.w3.org/2000/svg">
<g clip-path="url(#clip0_8080_2048)">
<path d="M4.50909 4.50909C6.51 2.50819 9.1703 1.40625 12 1.40625C14.1639 1.40625 16.2561 2.06452 18.0155 3.2797L16.6572 3.41902L16.8007 4.81791L20.457 4.44291L20.082 0.786656L18.683 0.930141L18.8046 2.11566C16.8135 0.743297 14.4473 0 12 0C8.79469 0 5.78123 1.24823 3.51473 3.51473C1.24823 5.78123 0 8.79469 0 12C0 14.3996 0.706125 16.7159 2.04202 18.6982L3.20817 17.9123C3.192 17.8883 3.1763 17.8641 3.16031 17.8399C2.01272 16.1067 1.40625 14.0895 1.40625 12C1.40625 9.17034 2.50819 6.51 4.50909 4.50909ZM21.958 5.3018L20.7918 6.08766C20.808 6.11166 20.8237 6.13598 20.8397 6.16008C21.9872 7.89333 22.5938 9.9105 22.5938 12C22.5938 14.8297 21.4918 17.49 19.4909 19.4909C17.49 21.4918 14.8298 22.5938 12 22.5938C9.83606 22.5938 7.74394 21.9355 5.98448 20.7203L7.34278 20.581L7.1993 19.1821L3.54305 19.5571L3.91805 23.2133L5.31698 23.0699L5.19539 21.8843C7.18659 23.2567 9.5528 24 12 24C15.2053 24 18.2188 22.7518 20.4853 20.4853C22.7518 18.2188 24 15.2053 24 12C24 9.60038 23.2939 7.28414 21.958 5.3018Z" fill="#313131"/>
<path d="M5.85859 13.4759L6.7689 12.6346C7.45852 12.0001 7.58959 11.5725 7.58959 11.1036C7.58959 10.207 6.82407 9.63466 5.71379 9.63466C4.76209 9.63466 4.07935 10.0346 3.71387 10.6415L4.72763 11.207C4.92071 10.8967 5.23796 10.7381 5.58966 10.7381C6.00343 10.7381 6.21034 10.9243 6.21034 11.2346C6.21034 11.4347 6.15516 11.6553 5.76896 12.0139L3.96212 13.7035V14.5587H7.7206V13.476L5.85859 13.4759ZM12.0587 13.6345H12.7759V12.5518H12.0587V11.7312H10.7691V12.5518H9.7898L11.7552 9.73122H10.3415L8.17604 12.7449V13.6345H10.7277V14.5586H12.0587V13.6345ZM14.0174 15.2483L16.2931 8.75195H15.1277L12.8519 15.2483H14.0174ZM17.4518 11.5587V10.8139H18.7207L17.0932 14.5586H18.5828L20.2862 10.5864V9.73122H16.2863V11.5587H17.4518Z" fill="#313131"/>
</g>
<defs>
<clipPath id="clip0_8080_2048">
<rect width="24" height="24" fill="white"/>
</clipPath>
</defs>
</svg>
